<svg width="150" height="150" viewBox="0 0 150 150" fill="none" xmlns="http://www.w3.org/2000/svg">
<rect width="150" height="150" rx="20" fill="#1C1C1C"/>
<path d="M55.748 53.552C55.748 56 56.36 58.176 57.584 60.08C58.876 61.984 60.44 63.65 62.276 65.078C64.112 66.506 66.594 68.24 69.722 70.28C73.122 72.456 75.842 74.36 77.882 75.992C79.922 77.624 81.656 79.63 83.084 82.01C84.512 84.322 85.226 87.008 85.226 90.068C85.226 93.604 84.274 96.766 82.37 99.554C80.466 102.274 77.814 104.416 74.414 105.98C71.082 107.476 67.342 108.224 63.194 108.224C60.134 108.224 56.938 107.816 53.606 107C50.274 106.116 48.03 105.164 46.874 104.144C46.534 103.872 46.262 103.634 46.058 103.43C45.922 103.158 45.854 102.75 45.854 102.206L45.548 85.988V85.886C45.548 85.614 45.718 85.478 46.058 85.478C46.398 85.41 46.602 85.512 46.67 85.784C48.71 89.932 50.478 93.298 51.974 95.882C53.538 98.466 55.476 100.744 57.788 102.716C60.168 104.688 62.854 105.674 65.846 105.674C68.566 105.674 70.81 104.96 72.578 103.532C74.346 102.036 75.23 99.52 75.23 95.984C75.23 92.992 74.55 90.374 73.19 88.13C71.898 85.886 70.3 83.982 68.396 82.418C66.492 80.854 63.874 78.984 60.542 76.808C57.278 74.7 54.728 72.898 52.892 71.402C51.124 69.906 49.594 68.104 48.302 65.996C47.01 63.888 46.364 61.406 46.364 58.55C46.364 54.946 47.384 51.92 49.424 49.472C51.532 46.956 54.218 45.12 57.482 43.964C60.746 42.74 64.18 42.128 67.784 42.128C70.164 42.128 72.578 42.366 75.026 42.842C77.474 43.25 79.446 43.76 80.942 44.372C81.554 44.644 81.962 44.95 82.166 45.29C82.37 45.562 82.472 45.936 82.472 46.412V61.406C82.472 61.61 82.302 61.78 81.962 61.916C81.622 61.984 81.418 61.916 81.35 61.712L80.534 59.774C78.834 55.49 76.828 51.852 74.516 48.86C72.272 45.868 69.11 44.372 65.03 44.372C62.31 44.372 60.066 45.154 58.298 46.718C56.598 48.282 55.748 50.56 55.748 53.552ZM101.204 108.122C99.3001 108.122 97.7701 107.578 96.6141 106.49C95.5261 105.334 94.9821 103.804 94.9821 101.9C94.9821 100.132 95.5261 98.704 96.6141 97.616C97.7701 96.528 99.3001 95.984 101.204 95.984C103.108 95.984 104.57 96.528 105.59 97.616C106.678 98.636 107.222 100.064 107.222 101.9C107.222 103.872 106.678 105.402 105.59 106.49C104.57 107.578 103.108 108.122 101.204 108.122Z" fill="white"/>
</svg>
