<svg width="39" height="45" viewBox="0 0 39 45" fill="none" xmlns="http://www.w3.org/2000/svg">
<path d="M32.4677 3.111C28.8458 1.037 24.4693 0 19.3383 0C13.3881 0 8.79602 1.12164 5.56219 3.36494C2.32836 5.60825 0.711447 8.50761 0.711447 12.063C0.711447 13.1635 0.970154 14.3571 1.48757 15.6439C2.00498 16.939 2.83714 18.2427 3.98407 19.5548C5.12238 20.8669 6.48923 21.9674 8.08458 22.8563C9.29188 23.5335 10.5423 24.2107 11.8358 24.888C13.1294 25.5652 14.1771 26.1154 14.9791 26.5387C15.7725 26.962 16.5702 27.3852 17.3722 27.8085C18.1655 28.2318 18.7907 28.5788 19.2478 28.8497C19.6962 29.1291 20.1058 29.4254 20.4766 29.7386C20.8388 30.0603 21.0932 30.3777 21.2398 30.6909C21.395 31.0126 21.4726 31.3639 21.4726 31.7449C21.4726 33.057 20.5025 33.713 18.5622 33.713C16.4494 33.713 13.6683 33.1501 10.2189 32.0242C6.76949 30.9068 4.59204 30.3481 3.68657 30.3481C2.47927 30.3481 1.56517 30.674 0.944279 31.3258C0.31476 31.9861 0 32.7818 0 33.713C0 34.5595 0.323387 35.4696 0.970153 36.4431C1.61692 37.4166 2.57844 38.3689 3.85473 39.3001C5.12239 40.2313 6.5884 41.0779 8.25274 41.8397C9.90846 42.6016 11.8488 43.2153 14.0736 43.6809C16.2899 44.1465 18.5838 44.3793 20.9552 44.3793C32.9851 44.3793 39 39.9985 39 31.237C39 29.036 38.3317 27.0889 36.995 25.3959C35.6584 23.7028 33.33 21.9251 30.01 20.0628C28.9751 19.4702 27.7032 18.7803 26.194 17.993C24.6849 17.2142 23.4992 16.592 22.6368 16.1264C21.7745 15.6608 20.8905 15.119 19.9851 14.5011C19.0796 13.8916 18.4199 13.299 18.006 12.7233C17.6007 12.1562 17.398 11.5551 17.398 10.9202C17.398 8.88858 18.67 7.87273 21.2139 7.87273C22.8093 7.87273 24.5555 8.26211 26.4527 9.04092C28.3499 9.82819 30.0746 10.6113 31.6269 11.3901C33.1791 12.1773 34.3433 12.571 35.1194 12.571C35.5937 12.571 36.0378 12.4736 36.4517 12.2789C36.857 12.0927 37.202 11.7752 37.4866 11.3265C37.7625 10.8863 37.9005 10.3488 37.9005 9.71393C37.9005 7.38598 36.0895 5.18499 32.4677 3.111Z" fill="white"/>
</svg>
